<svg xmlns="http://www.w3.org/2000/svg" xmlns:xlink="http://www.w3.org/1999/xlink" width="495" zoomAndPan="magnify" viewBox="0 0 371.25 317.999988" height="424" preserveAspectRatio="xMidYMid meet" version="1.0"><defs><clipPath id="5eae016306"><path d="M 61.132812 278.589844 L 109.710938 278.589844 L 109.710938 306.855469 L 61.132812 306.855469 Z M 61.132812 278.589844 " clip-rule="nonzero"/></clipPath><clipPath id="055ab46871"><path d="M 61.132812 82 L 261 82 L 261 300 L 61.132812 300 Z M 61.132812 82 " clip-rule="nonzero"/></clipPath><clipPath id="676a9b015b"><path d="M 104.09375 93.054688 L 261.640625 93.054688 L 261.640625 306.855469 L 104.09375 306.855469 Z M 104.09375 93.054688 " clip-rule="nonzero"/></clipPath><clipPath id="8fee60d39b"><path d="M 230.304688 11.28125 L 309.628906 11.28125 L 309.628906 89.625 L 230.304688 89.625 Z M 230.304688 11.28125 " clip-rule="nonzero"/></clipPath><clipPath id="75173d3568"><path d="M 61.132812 126 L 190 126 L 190 290 L 61.132812 290 Z M 61.132812 126 " clip-rule="nonzero"/></clipPath></defs><g clip-path="url(#5eae016306)"><path fill="#c7b29f" d="M 109.675781 297.394531 L 108.152344 306.855469 C 108.152344 306.855469 89.539062 306.457031 75.015625 294.667969 C 75.015625 294.667969 67.710938 288.464844 62.84375 282.265625 L 61.132812 278.683594 L 109.675781 297.394531 " fill-opacity="1" fill-rule="nonzero"/></g><g clip-path="url(#055ab46871)"><path fill="#fce7ca" d="M 260.820312 93.070312 L 257.234375 100.339844 L 196.039062 175.613281 L 143.617188 252.273438 L 104.140625 299.746094 C 104.140625 299.746094 91.878906 299.660156 75.113281 290 C 73.285156 288.949219 71.402344 287.78125 69.476562 286.488281 C 69.476562 286.488281 62.09375 281.675781 61.132812 278.683594 C 61.132812 278.683594 61.320312 277.398438 62.84375 275.445312 L 72.6875 259.703125 C 72.6875 259.703125 119.066406 189.457031 148.914062 158.34375 C 148.914062 158.34375 168.652344 137.816406 178.605469 127.070312 L 179.253906 126.386719 L 217.917969 85.851562 C 217.917969 85.851562 218.667969 84.085938 222.949219 84.195312 C 225.460938 84.257812 227.570312 83.636719 228.878906 83.117188 C 229.800781 82.75 230.332031 82.429688 230.332031 82.429688 L 255.097656 87.402344 C 255.097656 87.402344 254.816406 87.960938 256.464844 89.609375 C 256.75 89.894531 257.09375 90.214844 257.511719 90.566406 C 258.316406 91.257812 259.394531 92.085938 260.820312 93.070312 " fill-opacity="1" fill-rule="nonzero"/></g><g clip-path="url(#676a9b015b)"><path fill="#d7c6b4" d="M 260.820312 93.070312 L 261.570312 97.664062 C 261.570312 97.664062 261.890625 98.734375 261.035156 99.75 L 235.359375 134.234375 L 169.777344 222.015625 L 108.152344 306.855469 C 108.152344 306.855469 106.816406 306.480469 104.140625 299.746094 L 135.914062 249.921875 C 135.914062 249.921875 179.886719 184.699219 210.273438 151.875 L 253.222656 102.53125 L 260.820312 93.070312 " fill-opacity="1" fill-rule="nonzero"/></g><g clip-path="url(#8fee60d39b)"><path fill="#a0131b" d="M 307.988281 25.347656 C 307.988281 25.347656 305.941406 28.917969 300.847656 32.484375 C 300.847656 32.484375 300.726562 32.539062 300.429688 32.796875 C 300.0625 33.117188 299.433594 33.742188 298.441406 34.964844 C 297.761719 35.796875 296.917969 36.902344 295.871094 38.378906 L 283.636719 52.570312 C 283.636719 52.570312 283.601562 52.605469 283.546875 52.671875 C 282.308594 54.054688 268.671875 69.308594 259.5625 80.398438 C 259.5625 80.398438 257.167969 83.230469 256.757812 87.277344 C 256.683594 88.011719 256.671875 88.789062 256.757812 89.59375 L 256.464844 89.605469 C 254.820312 87.960938 255.097656 87.398438 255.097656 87.398438 L 230.332031 82.429688 L 233.433594 80.078125 C 233.433594 80.078125 235.402344 78.898438 238.164062 76.859375 C 241.625 74.300781 246.332031 70.386719 249.960938 65.75 L 267.910156 45.835938 L 270.75 42.511719 L 285.160156 25.628906 L 286.101562 24.5 L 288.023438 22.199219 L 294.066406 14.960938 C 294.066406 14.960938 299.402344 6.703125 307.386719 14.921875 C 307.386719 14.921875 312 19.933594 307.988281 25.347656 " fill-opacity="1" fill-rule="nonzero"/></g><path fill="#7a7673" d="M 300.457031 32.660156 L 300.429688 32.796875 C 300.0625 33.117188 299.433594 33.742188 298.441406 34.964844 L 298.375 34.691406 C 299.335938 29.824219 295.109375 26.566406 295.109375 26.566406 C 290.988281 22.820312 286.390625 24.425781 286.390625 24.425781 L 286.101562 24.5 L 288.023438 22.199219 C 288.050781 22.191406 288.078125 22.1875 288.101562 22.179688 C 295.910156 20.417969 298.800781 25.816406 298.800781 25.816406 C 301.636719 29.449219 300.457031 32.660156 300.457031 32.660156 " fill-opacity="1" fill-rule="nonzero"/><g clip-path="url(#75173d3568)"><path fill="#e2cfb5" d="M 75.113281 290 C 73.285156 288.949219 71.402344 287.78125 69.476562 286.488281 C 69.476562 286.488281 62.09375 281.675781 61.132812 278.683594 C 61.132812 278.683594 61.320312 277.398438 62.84375 275.445312 L 72.6875 259.703125 C 72.6875 259.703125 119.066406 189.457031 148.914062 158.34375 C 148.914062 158.34375 168.652344 137.8125 178.605469 127.070312 L 179.253906 126.386719 C 185.949219 128.136719 191.40625 130.570312 188.632812 133.5625 C 182.617188 140.058594 145.546875 185.527344 145.546875 185.527344 C 119.449219 214.65625 77.085938 286.640625 75.113281 290 " fill-opacity="1" fill-rule="nonzero"/></g><path fill="#444444" d="M 256.382812 93.707031 L 207.488281 146.3125 C 207.488281 146.3125 196.253906 140.648438 188.660156 132.734375 C 188.660156 132.734375 182.777344 137.546875 179.566406 133.589844 C 179.566406 133.589844 177.960938 128.5625 182.882812 124.929688 L 220.96875 85.371094 C 220.96875 85.371094 229.152344 85.796875 232.417969 82.804688 L 238.421875 80.195312 L 243.398438 81.980469 L 246.925781 83.246094 L 248.890625 83.445312 L 248.675781 86.011719 C 248.675781 86.011719 249.535156 90.714844 256.382812 93.707031 " fill-opacity="1" fill-rule="nonzero"/><path fill="#71736e" d="M 256.378906 93.710938 L 207.488281 146.3125 C 207.488281 146.3125 196.253906 140.648438 188.660156 132.738281 C 188.660156 132.738281 200.4375 121.316406 219.523438 106.859375 L 242.953125 85.050781 C 242.953125 85.050781 243.917969 84.085938 243.113281 82.003906 L 243.398438 81.980469 L 246.925781 83.246094 L 248.890625 83.445312 L 248.675781 86.011719 C 248.675781 86.011719 249.535156 90.714844 256.378906 93.710938 " fill-opacity="1" fill-rule="nonzero"/><path fill="#150d0b" d="M 283.664062 51.957031 L 283.546875 52.671875 C 282.308594 54.054688 268.671875 69.304688 259.5625 80.398438 C 259.5625 80.398438 257.167969 83.230469 256.757812 87.28125 C 256.683594 88.011719 256.671875 88.789062 256.757812 89.59375 L 256.464844 89.605469 C 254.820312 87.960938 255.097656 87.402344 255.097656 87.402344 L 230.332031 82.429688 L 233.433594 80.078125 C 233.433594 80.078125 235.402344 78.898438 238.164062 76.859375 C 241.625 74.300781 246.332031 70.386719 249.964844 65.75 L 267.910156 45.835938 L 270.75 42.511719 L 271.144531 42.386719 C 271.144531 42.386719 275.476562 40.035156 280.933594 44.898438 C 280.933594 44.898438 284.199219 48 283.664062 51.957031 " fill-opacity="1" fill-rule="nonzero"/></svg>